<svg id="Capa_1" enable-background="new 0 0 512 512" height="512" viewBox="0 0 512 512" width="512" xmlns="http://www.w3.org/2000/svg"><g><path d="m135 502 45 10h55c8.284 0 15-6.716 15-15v-120c0-8.284-6.716-15-15-15h-200c-8.284 0-15 6.716-15 15v120c0 8.284 6.716 15 15 15h55z" fill="#fffbf4"/><path d="m235 362h-100v140l45 10h55c8.284 0 15-6.716 15-15v-120c0-8.284-6.716-15-15-15z" fill="#e2dff4"/><path d="m120 235h30v106h-30z" fill="#1766a0"/><path d="m135 235h15v106h-15z" fill="#002659"/><g><g><path d="m477 182h-140c-19.299 0-35 15.701-35 35v260c0 19.299 15.701 35 35 35h140c19.299 0 35-15.701 35-35v-260c0-19.299-15.701-35-35-35z" fill="#1766a0"/><g><path d="m477 182h-70v330h70c19.299 0 35-15.701 35-35v-260c0-19.299-15.701-35-35-35z" fill="#002659"/></g><path d="m337 212h140c2.757 0 5 2.243 5 5v219.882h-150v-219.882c0-2.757 2.243-5 5-5z" fill="#beebfa"/><g><path d="m482 217c0-2.757-2.243-5-5-5h-70v224.882h75z" fill="#8cbcff"/></g></g></g><g><g><path d="m65 81h140v154h-140z" fill="#b4b9f1"/></g><path d="m135 81h70v154h-70z" fill="#989dec"/><path d="m190 81h30v154h-30z" fill="#b4b9f1"/><path d="m120 81h30v154h-30z" fill="#e2dff4"/><path d="m135 81h15v154h-15z" fill="#b4b9f1"/><path d="m50 81h30v154h-30z" fill="#e2dff4"/><path d="m235 250h-200c-8.284 0-15-6.716-15-15s6.716-15 15-15h200c8.284 0 15 6.716 15 15s-6.716 15-15 15z" fill="#fffbf4"/><path d="m235 220h-100v30h100c8.284 0 15-6.716 15-15s-6.716-15-15-15z" fill="#e2dff4"/><g><path d="m235 110h-200c-8.284 0-15-6.716-15-15v-30c0-5.682 3.21-10.875 8.292-13.417l100-50c4.223-2.111 9.193-2.111 13.416 0l100 50c5.082 2.542 8.292 7.735 8.292 13.417v30c0 8.284-6.716 15-15 15z" fill="#fffbf4"/><path d="m241.708 51.583-100-50c-2.111-1.055-4.41-1.583-6.708-1.583v110h100c8.284 0 15-6.716 15-15v-30c0-5.682-3.21-10.875-8.292-13.417z" fill="#e2dff4"/></g></g><g><g><path d="m150 512h30v-75c0-8.284-6.716-15-15-15h-60c-8.284 0-15 6.716-15 15v75h30l15-8z" fill="#beebfa"/><g><path d="m165 422h-30v82l15 8h30v-75c0-8.284-6.716-15-15-15z" fill="#8cbcff"/></g><path d="m120 512v-60h30v60" fill="#8cbcff"/><g><path d="m135 452h15v60h-15z" fill="#7c84e8"/></g></g></g><g><path d="m407 150c-8.284 0-15-6.716-15-15v-35h-95c-8.284 0-15-6.716-15-15s6.716-15 15-15h110c8.284 0 15 6.716 15 15v50c0 8.284-6.716 15-15 15z" fill="#1766a0"/></g><g><path d="m407 70v80c8.284 0 15-6.716 15-15v-50c0-8.284-6.716-15-15-15z" fill="#002659"/></g><path d="m422.404 314.4c-2.021-.715-4.082-1.457-6.144-2.227v-36.122c4.1 1.284 6.203 3.348 6.456 3.609 3.634 4.117 9.917 4.534 14.064.92 4.164-3.628 4.598-9.945.97-14.109-3.555-4.08-10.969-9.211-21.491-10.88v-6.091c0-5.523-4.477-10-10-10s-10 4.477-10 10v7.224c-.827.211-1.66.436-2.506.691-12.443 3.749-21.738 14.378-24.256 27.742-2.307 12.241 1.653 24.074 10.334 30.883 4.237 3.323 9.43 6.368 16.429 9.548v46.507c-5.335-.634-9.205-2.282-15.362-6.31-4.622-3.023-10.819-1.728-13.843 2.895-3.023 4.622-1.728 10.819 2.895 13.843 10.282 6.726 17.476 8.982 26.311 9.665v7.312c0 5.523 4.477 10 10 10s10-4.477 10-10v-8.24c17.813-4.271 29.24-19.374 31.744-34.268 3.232-19.234-6.817-35.952-25.601-42.592zm-30.23-14.097c-2.741-2.15-3.928-6.641-3.023-11.442.717-3.805 2.946-8.264 7.109-10.83v25.055c-1.495-.906-2.874-1.833-4.086-2.783zm36.107 53.372c-1.065 6.334-5.148 13.013-12.021 16.441v-36.661c13.438 5.057 12.608 16.726 12.021 20.22z" fill="#fff17d"/><path d="m422.404 314.4c-2.021-.715-4.082-1.457-6.144-2.227v-36.122c4.1 1.284 6.203 3.348 6.456 3.609 3.634 4.117 9.917 4.534 14.064.92 4.164-3.628 4.598-9.945.97-14.109-3.555-4.08-10.969-9.211-21.491-10.88v-6.091c0-5.273-4.084-9.583-9.26-9.963v169.925c5.176-.38 9.26-4.689 9.26-9.963v-8.24c17.813-4.271 29.24-19.374 31.744-34.268 3.234-19.233-6.815-35.951-25.599-42.591zm5.877 39.275c-1.065 6.334-5.148 13.013-12.021 16.441v-36.661c13.438 5.057 12.608 16.726 12.021 20.22z" fill="#ffcd00"/><path d="m28.345 322c-6.456 0-12.189 4.131-14.23 10.257l-13.333 40c-3.238 9.713 3.991 19.743 14.229 19.743h239.977c10.238 0 17.468-10.03 14.23-19.743l-13.333-40c-2.042-6.125-7.774-10.257-14.23-10.257z" fill="#fff17d"/><path d="m269.218 372.257-13.333-40c-2.042-6.125-7.774-10.257-14.23-10.257h-106.655v70h119.988c10.239 0 17.468-10.031 14.23-19.743z" fill="#ffcd00"/></g></svg>